<svg width="20" height="20" viewBox="0 0 20 20" fill="none" xmlns="http://www.w3.org/2000/svg">
<path d="M17 12.2V14.2C17 15.7464 15.7464 17 14.2 17H12.2M17 7.8V5.8C17 4.2536 15.7464 3 14.2 3H12.2M7.80001 17H5.80001C4.25361 17 3 15.7464 3 14.2V12.2M3 7.8V5.8C3 4.2536 4.25361 3 5.80001 3H7.80001" stroke="#71717A" stroke-width="1.5" stroke-linecap="round"/>
<path d="M11.8166 7.14832C11.8166 8.17167 11.0033 9.00127 10 9.00127C8.99673 9.00127 8.18341 8.17167 8.18341 7.14832C8.18341 6.12497 8.99673 5.29538 10 5.29538C11.0033 5.29538 11.8166 6.12497 11.8166 7.14832Z" stroke="#71717A" stroke-width="1.5" stroke-linecap="round"/>
<path d="M10 10.9987C8.4541 10.9987 7.23584 11.8214 6.59173 13.0433C6.15725 13.8677 6.90011 14.7046 7.81763 14.7046H12.1824C13.0999 14.7046 13.8428 13.8677 13.4083 13.0433C12.7642 11.8214 11.5459 10.9987 10 10.9987Z" stroke="#71717A" stroke-width="1.5" stroke-linecap="round"/>
</svg>
