<svg width="20" height="20" viewBox="0 0 20 20" fill="none" xmlns="http://www.w3.org/2000/svg">
<path d="M10 12.5C11.3807 12.5 12.5 11.3807 12.5 9.99999C12.5 8.61928 11.3807 7.49999 10 7.49999C8.61929 7.49999 7.5 8.61928 7.5 9.99999C7.5 11.3807 8.61929 12.5 10 12.5Z" stroke="#71717A" stroke-width="1.5"/>
<path d="M11.4711 1.79353C11.1648 1.66666 10.7766 1.66666 9.99998 1.66666C9.22339 1.66666 8.83514 1.66666 8.52881 1.79353C8.12045 1.96269 7.79599 2.28715 7.62684 2.69552C7.54962 2.88195 7.51939 3.09875 7.50757 3.41499C7.49019 3.87973 7.25186 4.30991 6.84909 4.54244C6.44634 4.77496 5.95464 4.76628 5.54347 4.54896C5.26369 4.40108 5.06082 4.31885 4.86076 4.29251C4.42251 4.23481 3.97929 4.35357 3.62861 4.62266C3.36559 4.82448 3.17145 5.16075 2.78317 5.83327C2.39489 6.50581 2.20074 6.84206 2.15747 7.17076C2.09978 7.609 2.21854 8.05221 2.48763 8.40291C2.61044 8.563 2.78306 8.6975 3.05097 8.86583C3.44481 9.11333 3.69822 9.53491 3.69819 10C3.69817 10.4651 3.44477 10.8866 3.05096 11.134C2.78302 11.3024 2.61038 11.437 2.48754 11.5971C2.21845 11.9477 2.09969 12.3909 2.15739 12.8292C2.20066 13.1578 2.3948 13.4942 2.78309 14.1667C3.17138 14.8392 3.36552 15.1755 3.62853 15.3772C3.97921 15.6463 4.42243 15.7651 4.86068 15.7074C5.06072 15.6811 5.26358 15.5988 5.54334 15.451C5.95454 15.2337 6.44628 15.225 6.84906 15.4575C7.25184 15.6901 7.49019 16.1202 7.50757 16.5851C7.5194 16.9012 7.54962 17.1181 7.62684 17.3045C7.79599 17.7128 8.12045 18.0373 8.52881 18.2065C8.83514 18.3333 9.22339 18.3333 9.99998 18.3333C10.7766 18.3333 11.1648 18.3333 11.4711 18.2065C11.8795 18.0373 12.204 17.7128 12.3731 17.3045C12.4503 17.1181 12.4806 16.9012 12.4924 16.585C12.5097 16.1202 12.7481 15.6901 13.1508 15.4575C13.5536 15.2249 14.0453 15.2337 14.4566 15.451C14.7363 15.5988 14.9391 15.681 15.1391 15.7073C15.5774 15.7651 16.0206 15.6463 16.3713 15.3772C16.6343 15.1754 16.8285 14.8392 17.2167 14.1666C17.6051 13.4941 17.7992 13.1578 17.8425 12.8292C17.9001 12.3909 17.7814 11.9477 17.5123 11.597C17.3895 11.4369 17.2168 11.3023 16.9489 11.134C16.5551 10.8866 16.3017 10.465 16.3017 9.99991C16.3017 9.53483 16.5551 9.11341 16.9489 8.866C17.2169 8.69758 17.3896 8.56308 17.5124 8.40291C17.7815 8.05227 17.9002 7.60906 17.8426 7.17081C17.7993 6.84212 17.6051 6.50586 17.2168 5.83333C16.8286 5.16081 16.6344 4.82454 16.3714 4.62272C16.0207 4.35363 15.5775 4.23487 15.1392 4.29257C14.9392 4.31891 14.7364 4.40113 14.4566 4.549C14.0454 4.76632 13.5536 4.77501 13.1509 4.54246C12.7481 4.30992 12.5097 3.87971 12.4924 3.41495C12.4806 3.09873 12.4503 2.88194 12.3731 2.69552C12.204 2.28715 11.8795 1.96269 11.4711 1.79353Z" stroke="#71717A" stroke-width="1.5"/>
</svg>
